# File created by Blade
# Date/Time:  Fri Jan 16 19:41:12 2015
# Frame Rate: 120.000 fps
#------------------------------------------------------
:FULLY-SPECIFIED
:DEGREES
546
root 18.839213 35.431901 -21.169146 12.225924 11.887788 0.242502
Spine -22.883620 -11.727863 -1.074281
Head 14.294260 0.274064 8.445704
LeftShoulder -4.707430 -0.606071 -0.009184
LeftArm -92.492362 45.526808 -160.517687
LeftForeArm 63.174378 -0.000000 50.103469
LeftHand 21.520461 0.000000 1.741999
LeftHandThumb1 -26.253704 0.000000 33.147579
RightShoulder -16.465315 20.541920 -37.276569
RightArm 82.778668 79.683964 62.786434
RightForeArm -13.231612 -0.000000 72.632921
RightHand -2.221870 -0.000000 -29.339805
RightHandThumb1 -24.326973 -0.000000 -32.862282
LeftUpLeg -2.309548 -1.103860 1.291390
LeftLeg -7.505886 -0.000000 0.000000
LeftFoot -19.909301 25.802081 -13.686174
LeftToeBase 24.525412 -0.000000 -0.000000
RightUpLeg -0.212112 -15.938233 -0.602415
RightLeg -4.339776 -0.000000 0.000000
RightFoot -24.501665 -25.142642 21.771550
RightToeBase 22.385209 -0.000000 -0.000000
547
root 18.842241 35.430799 -21.165000 12.219413 11.824116 0.222414
Spine -22.924317 -11.551917 -1.110815
Head 14.262885 0.130801 8.398616
LeftShoulder -4.827120 -0.868138 0.044061
LeftArm -91.797032 45.563271 -159.004035
LeftForeArm 63.311652 -0.000000 48.334079
LeftHand 21.297060 -0.000000 1.254286
LeftHandThumb1 -26.253704 0.000000 33.147579
RightShoulder -16.327660 20.459473 -37.126459
RightArm 78.879487 79.758194 58.915719
RightForeArm -14.048007 -0.000000 70.515733
RightHand -2.295000 -0.000000 -29.008229
RightHandThumb1 -24.326973 -0.000000 -32.862282
LeftUpLeg -2.280711 -1.065344 1.295550
LeftLeg -7.525109 -0.000000 0.000000
LeftFoot -19.932304 25.838335 -13.683263
LeftToeBase 24.540867 -0.000000 -0.000000
RightUpLeg -0.225822 -15.875793 -0.599392
RightLeg -4.311442 -0.000000 0.000000
RightFoot -24.529209 -25.128643 21.810353
RightToeBase 22.400529 -0.000000 -0.000000
548
root 18.843825 35.429866 -21.160168 12.209780 11.793937 0.198895
Spine -22.977464 -11.391225 -1.132521
Head 14.255172 -0.010862 8.316578
LeftShoulder -5.019762 -1.041388 0.128672
LeftArm -91.239661 45.799948 -157.687829
LeftForeArm 63.355855 -0.000000 46.596748
LeftHand 21.180902 -0.000000 0.640523
LeftHandThumb1 -26.253704 0.000000 33.147579
RightShoulder -16.215099 20.435678 -37.020794
RightArm 74.585871 79.718432 54.664365
RightForeArm -14.986222 -0.000000 68.425091
RightHand -2.354821 -0.000000 -28.732403
RightHandThumb1 -24.326973 -0.000000 -32.862282
LeftUpLeg -2.254814 -1.068514 1.314472
LeftLeg -7.535866 -0.000000 0.000000
LeftFoot -19.956059 25.867032 -13.668860
LeftToeBase 24.568763 -0.000000 -0.000000
RightUpLeg -0.222192 -15.858027 -0.586043
RightLeg -4.301707 -0.000000 0.000000
RightFoot -24.507619 -25.117236 21.771120
RightToeBase 22.392072 -0.000000 -0.000000
549
root 18.842901 35.429487 -21.158447 12.209879 11.767744 0.178295
Spine -23.025258 -11.249397 -1.175244
Head 14.181978 -0.160756 8.240004
LeftShoulder -5.176674 -1.281118 0.315614
LeftArm -90.487242 45.964923 -156.163336
LeftForeArm 63.587119 -0.000000 44.894998
LeftHand 20.518118 -0.000000 0.107220
LeftHandThumb1 -26.253704 0.000000 33.147579
RightShoulder -16.065334 20.381617 -36.857739
RightArm 69.988474 79.669873 50.084139
RightForeArm -15.806114 -0.000000 66.336411
RightHand -2.405002 0.000000 -28.792357
RightHandThumb1 -24.326973 -0.000000 -32.862282
LeftUpLeg -2.252060 -1.082754 1.335957
LeftLeg -7.536857 -0.000000 0.000000
LeftFoot -19.975975 25.911990 -13.674306
LeftToeBase 24.564120 -0.000000 -0.000000
RightUpLeg -0.239091 -15.820880 -0.567369
RightLeg -4.280357 -0.000000 0.000000
RightFoot -24.518316 -25.131284 21.775021
RightToeBase 22.400538 -0.000000 -0.000000
550
root 18.841943 35.429209 -21.156337 12.206441 11.744211 0.155078
Spine -23.063708 -11.083007 -1.225753
Head 14.103846 -0.329595 8.215676
LeftShoulder -5.340314 -1.574620 0.494762
LeftArm -89.855299 46.168111 -154.722357
LeftForeArm 63.659715 -0.000000 43.225738
LeftHand 19.980700 -0.000000 -0.499021
LeftHandThumb1 -26.253704 0.000000 33.147579
RightShoulder -15.993819 20.454196 -36.800469
RightArm 64.891427 79.422805 45.123102
RightForeArm -16.553586 -0.000000 64.341639
RightHand -2.448588 -0.000000 -28.676609
RightHandThumb1 -24.326973 -0.000000 -32.862282
LeftUpLeg -2.247268 -1.076136 1.357159
LeftLeg -7.534034 -0.000000 0.000000
LeftFoot -20.004943 25.929156 -13.670594
LeftToeBase 24.589509 -0.000000 -0.000000
RightUpLeg -0.253627 -15.797235 -0.544448
RightLeg -4.260642 -0.000000 0.000000
RightFoot -24.530435 -25.128740 21.797293
RightToeBase 22.419425 -0.000000 -0.000000
551
root 18.840355 35.429361 -21.154034 12.195993 11.724707 0.136106
Spine -23.092396 -10.917003 -1.292144
Head 14.044896 -0.468374 8.207163
LeftShoulder -5.521032 -1.879788 0.710964
LeftArm -89.193339 46.420164 -153.257476
LeftForeArm 63.311740 -0.000000 41.514939
LeftHand 19.581967 -0.000000 -1.124105
LeftHandThumb1 -26.253704 0.000000 33.147579
RightShoulder -15.906688 20.495100 -36.710454
RightArm 60.173949 79.143088 40.546826
RightForeArm -17.404036 -0.000000 62.399033
RightHand -2.581613 -0.000000 -28.222189
RightHandThumb1 -24.326973 -0.000000 -32.862282
LeftUpLeg -2.231925 -1.088347 1.377347
LeftLeg -7.538221 -0.000000 0.000000
LeftFoot -20.018578 25.966276 -13.675126
LeftToeBase 24.588173 -0.000000 -0.000000
RightUpLeg -0.257633 -15.783304 -0.528765
RightLeg -4.240851 -0.000000 0.000000
RightFoot -24.526914 -25.126310 21.796642
RightToeBase 22.430862 -0.000000 -0.000000
552
root 18.838669 35.429498 -21.152543 12.186189 11.699878 0.113522
Spine -23.126072 -10.743606 -1.354043
Head 13.976251 -0.604985 8.180362
LeftShoulder -5.662190 -2.258368 0.923307
LeftArm -88.442427 46.612511 -151.623416
LeftForeArm 62.805498 0.000000 39.772204
LeftHand 19.046993 -0.000000 -1.662127
LeftHandThumb1 -26.253704 0.000000 33.147579
RightShoulder -15.773845 20.347877 -36.524824
RightArm 55.912351 78.944628 36.356928
RightForeArm -18.218268 -0.000000 60.421608
RightHand -2.514313 -0.000000 -27.789586
RightHandThumb1 -24.326973 -0.000000 -32.862282
LeftUpLeg -2.219886 -1.065401 1.396930
LeftLeg -7.537966 -0.000000 0.000000
LeftFoot -20.030474 25.972066 -13.670019
LeftToeBase 24.544243 -0.000000 -0.000000
RightUpLeg -0.266300 -15.737905 -0.509936
RightLeg -4.217586 -0.000000 0.000000
RightFoot -24.536671 -25.139005 21.813699
RightToeBase 22.413756 -0.000000 -0.000000
553
root 18.837008 35.430006 -21.151071 12.169076 11.697215 0.099349
Spine -23.150438 -10.588361 -1.419296
Head 13.913606 -0.806545 8.115914
LeftShoulder -5.791866 -2.574345 1.121949
LeftArm -87.517058 46.876723 -149.774828
LeftForeArm 61.966979 -0.000000 37.904827
LeftHand 18.795007 -0.000000 -2.134469
LeftHandThumb1 -26.253704 0.000000 33.147579
RightShoulder -15.559178 19.912528 -36.206251
RightArm 52.102648 78.936301 32.536243
RightForeArm -19.230240 -0.000000 58.465260
RightHand -2.656304 -0.000000 -27.311951
RightHandThumb1 -24.326973 -0.000000 -32.862282
LeftUpLeg -2.214372 -1.032508 1.407021
LeftLeg -7.518440 -0.000000 0.000000
LeftFoot -20.044548 25.958846 -13.669502
LeftToeBase 24.572522 -0.000000 -0.000000
RightUpLeg -0.261241 -15.720510 -0.498536
RightLeg -4.196164 -0.000000 0.000000
RightFoot -24.545146 -25.138040 21.823198
RightToeBase 22.383735 -0.000000 -0.000000
